<svg width="90" height="90" viewBox="0 0 90 90" fill="none" xmlns="http://www.w3.org/2000/svg">
<rect width="90" height="90" rx="20" fill="white"/>
<path fill-rule="evenodd" clip-rule="evenodd" d="M45 83C65.9868 83 83 65.9868 83 45C83 24.0132 65.9868 7 45 7C24.0132 7 7 24.0132 7 45C7 65.9868 24.0132 83 45 83ZM66.3903 46.08V69.5604H25.2093V58.6892L33.946 50.0363L40.7689 56.7937L42.5281 58.536L44.2874 56.7937L57.2393 43.9662L59.6375 46.3644L62.7143 34.8816L51.2314 37.9584L53.7037 40.4306L42.5281 51.4988L35.7052 44.7414L33.946 42.9991L32.1868 44.7414L25.2093 51.652V46.08H16.6L45.8 19.8L57.48 30.312V22.72H66.24V38.196L75 46.08H66.3903ZM29.5441 58.7233H38.9363V68.1155H29.5441V58.7233ZM49.773 58.7233H40.3808V68.1155H49.773V58.7233ZM51.2183 52.221H60.6105V68.1155H51.2183V52.221Z" fill="black"/>
</svg>
